PathFileType	4	(X/Y/Z)	 s08c0202.trc
DataRate	CameraRate	NumFrames	NumMarkers	Units	OrigDataRate	OrigDataStartFrame	OrigNumFrames
200	200	4	50	mm	200	1001	2000
Frame#	Time	racr			lacr			c7			jug			rlel			rdr			llel			ldr			s2			lic			ric			lasi			rasi			rpsi			lpsi			rgt			lgt			rth1			rth2			rth3			rth4			rlfc			rmfc			rsh1			rsh2			rsh3			rsh4			rlmal			rmmal			rcal			rtoe			rmt5			lth1			lth2			lth4			lth3			llfc			lmfc			llmal			lmmal			lcal			lmt5			lsh1			lsh2			lsh3			lsh4			ltoe			SBIKE			LBIKE			RBIKE			
		X1	Y1	Z1	X2	Y2	Z2	X3	Y3	Z3	X4	Y4	Z4	X5	Y5	Z5	X6	Y6	Z6	X7	Y7	Z7	X8	Y8	Z8	X9	Y9	Z9	X10	Y10	Z10	X11	Y11	Z11	X12	Y12	Z12	X13	Y13	Z13	X14	Y14	Z14	X15	Y15	Z15	X16	Y16	Z16	X17	Y17	Z17	X18	Y18	Z18	X19	Y19	Z19	X20	Y20	Z20	X21	Y21	Z21	X22	Y22	Z22	X23	Y23	Z23	X24	Y24	Z24	X25	Y25	Z25	X26	Y26	Z26	X27	Y27	Z27	X28	Y28	Z28	X29	Y29	Z29	X30	Y30	Z30	X31	Y31	Z31	X32	Y32	Z32	X33	Y33	Z33	X34	Y34	Z34	X35	Y35	Z35	X36	Y36	Z36	X37	Y37	Z37	X38	Y38	Z38	X39	Y39	Z39	X40	Y40	Z40	X41	Y41	Z41	X42	Y42	Z42	X43	Y43	Z43	X44	Y44	Z44	X45	Y45	Z45	X46	Y46	Z46	X47	Y47	Z47	X48	Y48	Z48	X49	Y49	Z49	X50	Y50	Z50	
1001	5.0050	569.559039	1357.697343	-98.795850	519.684532	1299.633821	-443.596052	531.879883	1405.782080	-279.112049	497.055015	1251.060882	-240.026216	582.885203	1135.091051	57.634850	766.793804	925.342400	-44.696150	519.754601	1030.516604	-530.907542	767.825547	942.404770	-424.295064	-14.696326	1214.144688	-175.372432	125.343616	1218.861435	-331.429224	162.579871	1206.629295	-21.512749	163.500436	1183.104719	-292.960745	176.205058	1139.409834	-50.452726	20.151434	1252.403703	-109.516344	10.332473	1262.259707	-210.583763	59.570252	1083.905881	-3.456568	112.595298	1152.729698	-370.254978	109.000968	921.251145	7.219328	151.707380	842.637600	8.652703	154.008944	757.912676	-12.571591	188.110567	852.502608	7.099237	192.254518	646.779093	-34.951953	181.769095	635.857776	-145.832281	157.917198	517.865310	-8.320085	184.453593	434.197522	-27.119826	164.713023	350.494570	-38.227734	215.034881	440.078352	-53.176645	163.219399	227.362754	-50.096077	182.849819	252.995910	-135.909648	91.581880	202.968129	-100.807209	389.310054	167.555135	-94.949807	295.532745	142.098327	-31.527332	215.185253	1088.596670	-367.621055	301.628679	1076.118401	-361.628153	314.235482	1105.470083	-341.913829	371.957138	1022.269034	-369.152838	470.463348	935.216388	-347.151430	469.971116	897.904255	-240.542350	205.412354	617.152305	-384.142346	234.551526	617.240002	-300.338963	127.838238	612.269529	-350.158123	304.137099	490.452181	-410.022405	404.961844	837.975979	-378.257265	362.871248	762.811326	-370.262833	290.018685	714.292777	-379.016639	382.009112	746.068787	-341.353103	389.611579	490.132015	-339.342235	-140.859243	940.114959	-214.344249	18.226600	85.956671	-425.191817	11.377065	80.262370	-26.820684	
1002	5.0100	570.546361	1356.530803	-100.913640	518.954843	1299.362654	-444.329435	532.418252	1404.845711	-280.939543	496.803229	1250.337074	-241.712012	584.025952	1134.834489	56.297281	767.559282	925.251038	-45.896392	519.615304	1030.529552	-531.736221	767.639076	942.926636	-424.948666	-14.252501	1215.619414	-175.692662	125.230020	1220.581144	-332.020325	162.741651	1207.132183	-21.974879	163.357427	1184.068887	-293.324160	175.893159	1140.527846	-50.782038	18.446021	1252.066122	-114.935186	10.668539	1263.897944	-210.390376	59.188803	1085.451563	-2.884813	111.928478	1153.314194	-370.796011	108.349348	922.372104	6.658314	151.084255	843.769222	7.750488	154.219994	759.431821	-14.030162	187.326356	853.687095	7.899516	193.632553	647.335384	-36.211427	183.799990	637.587941	-146.498774	155.787937	519.741113	-9.160126	180.184083	435.491259	-28.006794	158.395537	352.269028	-39.098038	211.120279	440.308673	-54.076214	154.038536	229.177750	-50.719253	174.383627	254.460521	-136.561492	81.984642	205.777781	-101.491603	379.152682	166.008687	-94.984567	284.848192	142.127081	-31.636437	214.195205	1089.446776	-368.601552	300.681834	1077.202790	-363.018895	313.424280	1106.227323	-342.939793	371.151730	1023.372008	-370.355916	470.302862	936.699522	-348.900172	470.605459	899.687966	-242.129676	209.667279	613.472428	-384.119526	238.707249	614.994615	-300.467612	132.060403	605.559837	-350.458310	313.622173	491.611815	-410.256889	404.799829	837.738909	-379.235778	364.186964	762.043184	-371.523271	292.249137	712.184054	-379.773921	383.902744	745.648391	-342.787372	399.068820	495.501156	-339.648453	-140.889101	940.126329	-214.359625	18.218736	85.976148	-425.183869	11.344298	80.298466	-26.796198	
1003	5.0150	571.138700	1354.974931	-102.772005	518.285005	1299.435644	-446.218799	533.026938	1403.840944	-282.513281	496.321029	1249.543191	-243.448557	584.837775	1134.476293	55.155205	768.169524	925.330387	-46.818782	519.476610	1030.613868	-532.754069	767.392661	943.379071	-425.604127	-13.607234	1217.051506	-176.486938	124.937634	1222.297968	-332.598136	162.446444	1208.120404	-22.485884	163.177075	1185.056243	-293.852049	175.308239	1141.907491	-51.476338	18.528800	1253.560608	-114.967256	11.035016	1265.730140	-210.252656	58.283931	1086.907133	-4.713115	111.161637	1153.664572	-371.609299	108.477118	923.520975	5.538874	151.449945	845.072333	5.991885	155.745440	760.996607	-15.359951	187.583149	855.125937	8.009778	196.351615	648.813476	-36.824445	187.531291	639.934167	-147.196944	154.883669	522.246279	-9.987120	176.965508	437.361122	-28.893884	152.827761	354.777233	-39.997033	208.549318	441.517962	-54.584635	145.164176	231.925586	-51.446307	166.169443	256.696290	-137.271730	72.724845	209.714224	-102.209183	369.112072	164.840547	-95.012661	274.289371	142.595011	-31.838892	213.313942	1089.812543	-369.691303	299.796532	1077.399688	-364.360848	312.679196	1106.469614	-344.409062	370.167759	1023.526835	-372.160380	469.637131	936.844360	-350.607461	470.322974	900.020243	-243.583422	213.766027	608.362430	-384.141792	242.796484	611.203042	-300.272792	136.141984	597.328324	-350.619239	322.915178	491.992373	-410.613432	404.039729	836.845557	-380.619779	365.256844	760.033545	-372.715615	294.349405	708.660777	-380.590259	385.474311	743.907190	-344.096922	408.104722	500.267759	-340.052153	-141.017796	940.074796	-214.605449	18.209447	85.893731	-425.186088	11.348214	80.299040	-26.806792	
1004	5.0200	571.775983	1353.372122	-104.509637	517.878021	1299.337117	-447.700359	533.702097	1402.876941	-283.808931	496.014505	1248.738190	-245.039225	585.156222	1133.894286	53.917970	768.403262	924.917669	-48.017998	519.488450	1030.700534	-533.735792	766.916976	943.416390	-425.862821	-12.926318	1218.398155	-177.488590	124.740779	1224.016765	-333.484825	161.912393	1209.425441	-23.173438	162.964983	1186.048739	-294.539285	174.610435	1143.450703	-52.251725	18.647407	1255.057176	-115.897813	11.272985	1267.296336	-211.130089	57.677922	1088.380968	-5.020763	110.463489	1154.008249	-372.536930	109.492567	924.656443	3.961837	153.138561	846.752916	4.375440	157.729374	762.644946	-17.361040	188.909470	856.871229	7.315381	200.554588	651.255579	-37.815460	192.901974	642.537983	-148.000350	155.389195	525.302182	-10.777929	174.764477	439.902395	-29.872470	148.080649	358.097588	-40.885242	205.911542	443.051531	-55.538822	136.738937	235.528636	-52.243465	158.633468	259.395431	-138.002888	63.901437	214.683190	-103.083046	359.224525	164.272266	-94.431947	263.830291	143.826254	-31.963818	212.696428	1089.795672	-371.137752	299.095561	1076.902571	-365.986117	312.229657	1106.006235	-346.354315	369.041907	1022.739968	-374.195817	467.385365	936.192306	-355.165213	469.392051	898.920543	-245.220868	217.832932	602.020730	-384.126320	246.699345	606.100839	-300.146167	140.254306	587.784438	-350.913616	331.915843	491.489815	-411.087805	403.390041	834.331372	-382.458804	366.171310	756.654940	-373.988563	296.405032	703.738213	-381.361800	386.846328	741.309170	-345.246076	416.673352	504.360967	-340.760551	-141.164577	939.909859	-215.129464	18.203676	85.691106	-425.249564	11.326919	80.608031	-26.644757	
